<svg xmlns="http://www.w3.org/2000/svg" viewBox="0 0 24 24"><defs><style>.cls-1{fill:none;}</style></defs><title>basecamp</title><g id="Layer_1" data-name="Layer 1"><path class="cls-1" d="M0,0H24V24H0Z"/><path d="M12.33,20a10.26,10.26,0,0,1-7.67-3.45.85.85,0,0,1-.16-.86c.53-1.45,2-4.82,3.84-4.83a3.28,3.28,0,0,1,2.22,1.35c.17.17.42.44.59.58a15.44,15.44,0,0,0,2-3.28.84.84,0,0,1,1.13-.41.86.86,0,0,1,.41,1.13c-2,4.33-3.05,4.33-3.44,4.33a2.83,2.83,0,0,1-1.89-1.18c-.25-.27-.77-.82-1-.82-.43.07-1.38,1.58-2.06,3.23a8.48,8.48,0,0,0,6.19,2.5c2,0,5.53-.33,7-2.52C19.1,11.5,16.74,5.7,12.5,5.7c-3.6,0-6.31,2.5-8,7.43a.85.85,0,1,1-1.6-.56C4.85,6.88,8.1,4,12.5,4c5.73,0,8.38,7.31,8.7,11.92a.93.93,0,0,1-.11.49C19.75,18.72,16.7,20,12.5,20ZM11,12.9Zm.26,0Z"/></g></svg>