<svg id="Layer_1" data-name="Layer 1" xmlns="http://www.w3.org/2000/svg" viewBox="0 0 24 24"><defs><style>.cls-1{fill:none;}.cls-2{fill-rule:evenodd;}</style></defs><title>link</title><path class="cls-1" d="M0,0H24V24H0Z"/><path class="cls-2" d="M17.06,12.32,18.41,11A3.81,3.81,0,0,0,13,5.58L9.65,9a2.86,2.86,0,0,0,0,4h0l.67.68,1.34-1.35a1.9,1.9,0,0,1,0-2.68h0l2.7-2.69a1.89,1.89,0,0,1,2.68,0h0a1.9,1.9,0,0,1,0,2.68h0L15.71,11l1.35,1.34Z"/><path class="cls-2" d="M7,11.65,5.61,13A3.81,3.81,0,0,0,11,18.39h0L14.37,15a2.87,2.87,0,0,0,0-4h0l-.67-.68-1.34,1.35a1.9,1.9,0,0,1,0,2.68h0L9.66,17A1.9,1.9,0,0,1,7,17H7a1.9,1.9,0,0,1,0-2.68H7L8.31,13,7,11.65Z"/></svg>