<svg xmlns="http://www.w3.org/2000/svg" viewBox="0 0 24 24"><defs><style>.cls-1{fill:none;}</style></defs><title>slack</title><g id="Layer_1" data-name="Layer 1"><path class="cls-1" d="M0,0H24V24H0Z"/><path d="M7.65,14A1.58,1.58,0,1,1,6.08,12.4H7.65Z"/><path d="M8.45,14a1.58,1.58,0,1,1,3.15,0v3.94a1.58,1.58,0,1,1-3.15,0Z"/><path d="M10,7.65A1.58,1.58,0,1,1,11.6,6.08V7.65Z"/><path d="M10,8.45a1.58,1.58,0,1,1,0,3.15H6.08a1.58,1.58,0,1,1,0-3.15Z"/><path d="M16.35,10a1.58,1.58,0,1,1,1.57,1.58H16.35Z"/><path d="M15.55,10a1.58,1.58,0,1,1-3.15,0V6.08a1.58,1.58,0,1,1,3.15,0Z"/><path d="M14,16.35a1.58,1.58,0,1,1-1.58,1.57V16.35Z"/><path d="M14,15.55a1.58,1.58,0,1,1,0-3.15h3.94a1.58,1.58,0,1,1,0,3.15Z"/></g></svg>